# xmcd
#
# Track frame offsets: 
#        150
#        21825
#        45018
#        53744
#        72420
#        87689
#        108587
#        119678
#        139926
#        155039
#        174814
#        193011
#
# Disc length: 2750 seconds
#
# Revision: 0
# Processed by: cddbd v1.5.2PL0 Copyright (c) Steve Scherf et al.
# Submitted via: ExactAudioCopy v1.0b4
#
DISCID=a70abc0c
DTITLE=St. Anthony of Padua Gospel Choir - Rough Side
DYEAR=2011
DGENRE=Gospel
TTITLE0=Rough Side
TTITLE1=Amazing Grace
TTITLE2=Sign me Up
TTITLE3=Drift Away
TTITLE4=I Love To Praise Gim
TTITLE5=Hold To God's Unchanging Hand
TTITLE6=My God is Standing by
TTITLE7=I Want to love So
TTITLE8=Take a Trip
TTITLE9=I got a Feeling
TTITLE10=Jesus is the Answer
TTITLE11=When the Saints
EXTD=
EXTT0=
EXTT1=
EXTT2=
EXTT3=
EXTT4=
EXTT5=
EXTT6=
EXTT7=
EXTT8=
EXTT9=
EXTT10=
EXTT11=
PLAYORDER=
